<svg height="512pt" viewBox="0 0 512.002 512" width="512pt" xmlns="http://www.w3.org/2000/svg"><path d="m499.386719 499.386719c-16.820313 16.816406-44.085938 16.816406-60.902344 0l-178.1875-178.1875 60.902344-60.902344 178.1875 178.1875c16.816406 16.820313 16.816406 44.085937 0 60.902344zm0 0" fill="#ff8354"/><path d="m379.144531 189.574219c0 104.695312-84.875 189.570312-189.574219 189.570312-104.695312 0-189.570312-84.875-189.570312-189.570312 0-104.699219 84.875-189.574219 189.570312-189.574219 104.699219 0 189.574219 84.875 189.574219 189.574219zm0 0" fill="#ff8354"/><path d="m55.523438 85.523438c74.03125-74.03125 194.066406-74.03125 268.097656 0 33.195312 33.199218 51.457031 75.648437 54.882812 119.050781 4.210938-53.386719-14.046875-108.214844-54.882812-149.050781-74.03125-74.03125-194.066406-74.03125-268.097656 0-40.832032 40.835937-59.09375 95.664062-54.882813 149.050781 3.425781-43.402344 21.6875-85.851563 54.882813-119.050781zm0 0" fill="#ffac8c"/><path d="m322.386719 192.808594c0 72.246094-58.566407 130.8125-130.816407 130.8125-72.246093 0-130.8125-58.566406-130.8125-130.8125 0-72.25 58.566407-130.816406 130.8125-130.816406 72.25 0 130.816407 58.566406 130.816407 130.816406zm0 0" fill="#a1f1fc"/><path d="m328.289062 389.191406 110.195313 110.195313c16.816406 16.816406 44.082031 16.816406 60.902344 0 16.816406-16.816407 16.816406-44.082031 0-60.902344l-110.195313-110.195313zm0 0" fill="#6770e6"/><path d="m508.058594 451.035156c-2.078125 4.539063-4.933594 8.8125-8.671875 12.550782-8.382813 8.382812-19.363281 12.582031-30.351563 12.605468v.007813h-53.742187l23.1875 23.191406c16.820312 16.816406 44.085937 16.816406 60.902343 0 13.082032-13.082031 15.941407-32.46875 8.675782-48.355469zm0 0" fill="#5861c7"/><path d="m454.152344 250.65625h-282.285156c-31.945313 0-57.84375-25.898438-57.84375-57.847656 0-31.949219 25.898437-57.84375 57.84375-57.84375h282.285156c31.949218-.003906 57.847656 25.894531 57.847656 57.84375 0 31.945312-25.898438 57.847656-57.847656 57.847656zm0 0" fill="#ffefe4"/><path d="m454.152344 134.960938h-282.28125c-31.949219 0-57.847656 25.898437-57.847656 57.847656 0 1.683594.089843 3.347656.230468 5 2.535156-29.605469 27.355469-52.847656 57.617188-52.847656h282.28125c30.261718 0 55.082031 23.242187 57.621094 52.847656.140624-1.652344.230468-3.316406.230468-5-.003906-31.949219-25.902344-57.847656-57.851562-57.847656zm0 0" fill="#fff7f2"/><path d="m454.152344 250.65625h-57.84375v-115.695312h57.84375c31.949218 0 57.847656 25.898437 57.847656 57.847656 0 31.945312-25.898438 57.847656-57.847656 57.847656zm0 0" fill="#d476e2"/><path d="m503.625 162.8125c-.964844-1.589844-2.007812-3.128906-3.117188-4.613281-1.109374-1.484375-2.289062-2.914063-3.535156-4.285157-.621094-.683593-1.261718-1.351562-1.917968-2.007812-.957032-.960938-1.957032-1.871094-2.984376-2.761719-3.167968-2.753906-6.628906-5.179687-10.347656-7.203125-.820312-.445312-1.652344-.871094-2.492187-1.277344-4.054688-1.953124-8.378907-3.4375-12.894531-4.40625-.320313-.070312-.636719-.136718-.957032-.199218-3.632812-.714844-7.386718-1.097656-11.226562-1.097656h-57.847656v10h57.847656c30.261718 0 55.078125 23.242187 57.617187 52.847656 0-.007813 0-.011719.003907-.019532.066406-.800781.121093-1.609374.160156-2.417968.039062-.851563.0625-1.703125.0625-2.5625.003906-10.984375-3.054688-21.25-8.371094-29.996094zm0 0" fill="#ea82fa"/><path d="m350.765625 221.058594h-182.15625c-3.570313 0-6.460937-2.894532-6.460937-6.464844s2.894531-6.460938 6.460937-6.460938h182.15625c3.570313 0 6.460937 2.894532 6.460937 6.460938 0 3.570312-2.890624 6.464844-6.460937 6.464844zm0 0" fill="#edd4c2"/><path d="m480.566406 216.152344-11.308594-11.308594c3.144532-4.523438 5-10.007812 5-15.921875 0-15.433594-12.554687-27.992187-27.992187-27.992187s-27.992187 12.558593-27.992187 27.992187 12.554687 27.992187 27.992187 27.992187c5.914063 0 11.398437-1.855468 15.921875-5l11.308594 11.3125c.976562.972657 2.257812 1.460938 3.539062 1.460938 1.277344 0 2.558594-.488281 3.535156-1.460938 1.953126-1.957031 1.953126-5.121093-.003906-7.074218zm-52.292968-27.234375c0-9.917969 8.070312-17.992188 17.992187-17.992188s17.992187 8.074219 17.992187 17.992188c0 9.921875-8.070312 17.992187-17.992187 17.992187s-17.992187-8.070312-17.992187-17.992187zm0 0" fill="#ffefe4"/></svg>